<!-- Generator: Adobe Illustrator 23.1.0, SVG Export Plug-In  -->
<svg version="1.1" xmlns="http://www.w3.org/2000/svg" xmlns:xlink="http://www.w3.org/1999/xlink" x="0px" y="0px" width="322.1px"
	 height="204.4px" viewBox="0 0 322.1 204.4" style="enable-background:new 0 0 322.1 204.4;" xml:space="preserve">
<style type="text/css">
	.st0{fill:#6B6966;}
	.st1{fill:#4C82A8;}
	.st2{fill:#FFFFFF;}
</style>
<defs>
</defs>
<g>
	<g>
		<path class="st0" d="M260.9,167.5l-4.5,10c0,0,0,0,0,0l-1.2-7c-0.2-1.1-1.2-2-2.3-1.9l-8.5,0.9c-1.8,0.3-2.1,1.7-1.9,2.7l1.1,5
			c0.4,1.8,0,3.6-1.2,5l-7.8,9.6c0,0,0,0,0,0l0.6-7.1c0.1-1.1-0.6-2.2-1.7-2.5l-8.4-1.3c-1.8-0.2-2.4,1.1-2.5,2.1l-0.2,5.1
			c-0.1,1.8-1,3.5-2.4,4.5l-10,7.2c0,0,0,0,0,0l2.5-6.7c0.4-1.1,0-2.3-1-2.8l-7.8-3.4c-1.7-0.7-2.7,0.5-2.9,1.4l-1.5,4.9
			c-0.5,1.7-1.8,3.1-3.5,3.7l-11.6,4.4l0,0l4.1-5.8c0.6-0.9,0.6-2.2-0.3-3l-6.6-5.3c-1.5-1.1-2.7-0.3-3.2,0.6l-2.7,4.3
			c-1,1.5-2.6,2.5-4.3,2.7l-12.3,1.2c0,0,0,0,0,0l5.5-4.6c0.9-0.7,1.1-2,0.5-2.9l-5-6.9c-1.2-1.5-2.5-0.9-3.2-0.3l-3.8,3.5
			c-1.3,1.2-3.1,1.8-4.9,1.5l-12.2-2c0,0,0,0,0,0l6.5-3c1-0.5,1.6-1.6,1.3-2.7l-3.1-7.9c-0.7-1.7-2.2-1.6-3.1-1.1l-4.5,2.4
			c-1.6,0.8-3.5,0.9-5.1,0.2c0,0-6.1-2.8-9.4-4.2c-1.1-0.5-2-0.9-2-0.9c-2.3-1.2-3.5,1.6-1.6,2.5l12.6,5.6c1.9,0.9,4.2,0.8,6.1-0.2
			c0,0,2.6-1.4,3.6-1.9c0.4-0.2,1.2-0.9,1.8,0.5c0.7,1.7,1.4,3.4,1.6,4.1c0.4,1.5-0.1,1.5-0.6,1.7c-1.5,0.8-5.9,2.6-5.9,2.6
			c-2.4,1.1-1.9,4.7,0.7,5.1l13.8,2.3c2.1,0.3,4.2-0.3,5.8-1.8c0,0,2.2-2.1,3-2.8c0.3-0.3,0.9-1.2,1.9,0c1.1,1.4,2.2,2.9,2.6,3.5
			c0.8,1.3,0.3,1.4-0.1,1.8c-1.2,1.1-5.1,4-5.1,4c-2,1.7-0.6,5,2,4.7l14-1.4c2.1-0.2,4-1.4,5.2-3.2c0,0,1.6-2.5,2.2-3.4
			c0.3-0.4,0.6-1.4,1.8-0.4c1.4,1.1,2.9,2.2,3.4,2.7c1.1,1,0.7,1.3,0.4,1.8c-0.9,1.4-3.8,5.2-3.8,5.2c-1.5,2.2,0.7,5,3.2,4.1l13.1-5
			c2-0.8,3.5-2.4,4.2-4.4c0,0,0.9-2.9,1.2-3.9c0.1-0.4,0.2-1.5,1.6-0.9c1.7,0.7,3.3,1.4,4,1.8c1.3,0.7,1,1.1,0.8,1.6
			c-0.5,1.6-2.4,6-2.4,6c-0.9,2.5,1.9,4.7,4.1,3.1l11.4-8.2c1.7-1.2,2.8-3.2,2.9-5.3c0,0,0.1-3,0.2-4.1c0-0.5-0.1-1.5,1.3-1.3
			c1.8,0.2,3.6,0.5,4.3,0.7c1.5,0.3,1.2,0.8,1.2,1.4c-0.1,1.7-0.7,6.4-0.7,6.4c-0.2,2.6,3.1,4,4.8,1.9l8.9-10.9
			c1.3-1.6,1.9-3.8,1.4-5.9c0,0-0.7-2.9-0.9-4c-0.1-0.5-0.5-1.4,1-1.6c1.8-0.2,3.6-0.5,4.4-0.5c1.5,0,1.4,0.5,1.5,1
			c0.3,1.6,1,6.4,1,6.4c0.5,2.6,4,3.1,5.1,0.6l4.9-10.8C264.2,166.8,261.7,165.7,260.9,167.5z"/>
		<path class="st0" d="M293.6,109.3l-5-13.1c-0.8-2-2.4-3.5-4.4-4.2c0,0-2.9-0.9-3.9-1.2c-0.4-0.1-1.5-0.2-0.9-1.6
			c0.7-1.7,1.4-3.3,1.8-4c0.7-1.3,1.1-1,1.6-0.8c1.6,0.5,6,2.4,6,2.4c2.5,0.9,4.7-1.9,3.1-4.1l-8.2-11.4c-1.2-1.7-3.2-2.8-5.3-2.9
			c0,0-3-0.1-4.1-0.2c-0.5,0-1.5,0.2-1.3-1.3c0.2-1.8,0.5-3.6,0.7-4.3c0.3-1.5,0.8-1.2,1.4-1.2c1.7,0.1,6.4,0.7,6.4,0.7
			c2.6,0.2,4-3.1,1.9-4.8l-10.9-8.9c-1.6-1.3-3.8-1.9-5.9-1.4c0,0-2.9,0.7-4,0.9c-0.5,0.1-1.4,0.5-1.6-1c-0.2-1.8-0.5-3.6-0.5-4.4
			c0-1.5,0.5-1.4,1-1.5c1.6-0.3,6.4-1,6.4-1c2.6-0.5,3.1-4,0.6-5.1L256,29.3c-1.9-0.9-4.2-0.8-6.1,0.2c0,0-2.6,1.4-3.6,1.9
			c-0.4,0.2-1.2,0.9-1.8-0.5c-0.7-1.7-1.4-3.4-1.6-4.1c-0.4-1.5,0.1-1.5,0.6-1.7c1.5-0.8,5.9-2.6,5.9-2.6c2.4-1.1,1.9-4.7-0.7-5.1
			L235,15.2c-2.1-0.3-4.2,0.3-5.8,1.8c0,0-2.2,2.1-3,2.8c-0.3,0.3-0.9,1.2-1.9,0c-1.1-1.4-2.2-2.9-2.6-3.5c-0.8-1.3-0.3-1.4,0.1-1.8
			c1.2-1.1,5.1-4,5.1-4c2-1.7,0.6-5-2-4.7l-14,1.4c-2.1,0.2-4,1.4-5.2,3.2c0,0-1.6,2.5-2.2,3.4c-0.3,0.4-0.6,1.4-1.8,0.4
			c-1.4-1.1-2.9-2.2-3.4-2.7c-1.1-1-0.7-1.3-0.4-1.8c0.9-1.4,3.8-5.2,3.8-5.2c1.5-2.2-0.7-5-3.2-4.1l-13.1,5c-2,0.8-3.5,2.4-4.2,4.4
			c0,0-0.9,2.9-1.2,3.9c-0.1,0.4-0.2,1.5-1.6,0.9c-1.7-0.7-3.3-1.4-4-1.8c-1.3-0.7-1-1.1-0.8-1.6c0.5-1.6,2.4-6,2.4-6
			c0.9-2.5-1.9-4.7-4.1-3.1L160.7,10c-1.7,1.2-2.8,3.2-2.9,5.3c0,0-0.1,3-0.2,4.1c0,0.5,0.2,1.5-1.3,1.3c-1.8-0.2-3.6-0.5-4.3-0.7
			c-1.5-0.3-1.2-0.8-1.2-1.4c0.1-1.7,0.7-6.4,0.7-6.4c0.2-2.6-3.1-4-4.8-1.9l-8.9,10.9c-1.3,1.6-1.9,3.8-1.4,5.9c0,0,0.7,2.9,0.9,4
			c0.1,0.5,0.5,1.4-1,1.6c-1.8,0.2-3.6,0.5-4.4,0.5c-1.5,0-1.4-0.5-1.5-1c-0.3-1.6-1-6.4-1-6.4c-0.5-2.6-4-3.1-5.1-0.6l-5.8,12.8
			c-0.9,1.9-0.8,4.2,0.2,6.1c0,0,1.4,2.6,1.9,3.6c0.2,0.4,0.9,1.2-0.5,1.8c-1.7,0.7-3.4,1.4-4.1,1.6c-1.5,0.4-1.5-0.1-1.7-0.6
			c-0.8-1.5-2.6-5.9-2.6-5.9c-1.1-2.4-4.7-1.9-5.1,0.7l-2.3,13.8c-0.3,2.1,0.3,4.2,1.8,5.8c0,0,0.4,0.5,0.7,0.8c1,1,2,0.9,2.6,0.3
			c0.5-0.5,0.6-1.3,0.1-1.8c-0.1-0.1-0.4-0.4-0.6-0.6c-1.3-1.3-1.8-3.1-1.5-4.9l2-12.2l3,6.5c0.5,1,1.6,1.6,2.7,1.3l7.9-3.1
			c1.7-0.7,1.6-2.2,1.1-3.1l-2.4-4.5c-0.8-1.6-0.9-3.5-0.2-5.1l5.1-11.3c0,0,0,0,0,0l1.2,7c0.2,1.1,1.2,2,2.3,1.9l8.5-0.9
			c1.8-0.3,2.1-1.7,1.9-2.7l-1.1-5c-0.4-1.8,0-3.6,1.2-5l7.8-9.6l-0.6,7.1c-0.1,1.1,0.6,2.2,1.7,2.5l8.4,1.3
			c1.8,0.2,2.4-1.1,2.5-2.1l0.2-5.1c0.1-1.8,1-3.5,2.4-4.5l10-7.2c0,0,0,0,0,0l-2.5,6.7c-0.4,1.1,0,2.3,1,2.8l7.8,3.4
			c1.7,0.7,2.7-0.5,2.9-1.4l1.5-4.9c0.5-1.7,1.8-3.1,3.5-3.7l11.6-4.4c0,0,0,0,0,0L195,9c-0.6,0.9-0.6,2.2,0.3,3l6.6,5.3
			c1.5,1.1,2.7,0.3,3.2-0.6l2.7-4.3c1-1.5,2.6-2.5,4.3-2.7l12.3-1.2c0,0,0,0,0,0l-5.5,4.6c-0.9,0.7-1.1,2-0.5,2.9l5,6.9
			c1.2,1.5,2.5,0.9,3.2,0.3l3.8-3.5c1.3-1.2,3.1-1.8,4.9-1.5l12.2,2c0,0,0,0,0,0l-6.5,3c-1,0.5-1.6,1.6-1.3,2.7l3.1,7.9
			c0.7,1.7,2.2,1.6,3.1,1.1l4.5-2.4c1.6-0.8,3.5-0.9,5.1-0.2l11.3,5.1c0,0,0,0,0,0l-7,1.2c-1.1,0.2-2,1.2-1.9,2.3l0.9,8.5
			c0.3,1.8,1.7,2.1,2.7,1.9l5-1.1c1.8-0.4,3.6,0,5,1.2l9.6,7.8l-7.1-0.6c-1.1-0.1-2.2,0.6-2.5,1.7l-1.3,8.4
			c-0.2,1.8,1.1,2.4,2.1,2.5l5.1,0.2c1.8,0.1,3.5,1,4.5,2.4l7.2,10c0,0,0,0,0,0l-6.7-2.5c-1.1-0.4-2.3,0-2.8,1l-3.4,7.8
			c-0.7,1.7,0.5,2.7,1.4,2.9l4.9,1.5c1.7,0.5,3.1,1.8,3.7,3.5l4.4,11.6c0,0,0,0,0,0l-5.8-4.1c-0.9-0.6-2.2-0.6-3,0.3l-4.5,5.2
			c-1.2,1.5,1.1,3.4,2.4,1.7c1.1-1.4,2.3-3.2,2.8-3.7c1-1.1,1.3-0.7,1.8-0.4c1.4,0.9,5.2,3.8,5.2,3.8
			C291.7,114,294.6,111.8,293.6,109.3z"/>
	</g>
	<polygon class="st1" points="127.2,119.5 119.7,160.8 314.6,160.8 322.1,119.5 	"/>
	<g>
		<path class="st2" d="M146,135.3v3h-2.8v9.4h-4v-9.4h-1.6v-3h1.6v-1.2c0-0.8,0.1-1.5,0.3-2c0.2-0.5,0.5-0.9,1-1.2
			c0.5-0.3,1.1-0.5,2-0.6s2-0.2,3.4-0.2v3.1c-0.3-0.1-0.5-0.1-0.8-0.1c-0.6,0-1,0-1.3,0.1c-0.2,0.1-0.4,0.3-0.5,0.5
			c-0.1,0.2-0.1,0.7-0.1,1.2v0.4H146z"/>
		<path class="st2" d="M155.5,145.8h-0.1c-0.2,1.3-1.4,2-3.6,2c-1,0-1.8-0.1-2.5-0.3s-1.1-0.6-1.5-1.2c-0.3-0.6-0.5-1.3-0.5-2.4
			c0-1.4,0.4-2.4,1.1-3c0.7-0.6,1.9-0.9,3.4-0.9c0.9,0,1.6,0.1,2.2,0.2s1,0.5,1.2,1.2h0.2v-2c0-0.7-0.1-1.2-0.3-1.5
			c-0.2-0.3-0.7-0.4-1.5-0.4c-0.6,0-1,0.1-1.2,0.3c-0.3,0.2-0.4,0.5-0.4,1.1h-4c0-1.2,0.3-2.1,0.8-2.6c0.5-0.6,1.1-0.9,1.9-1
			c0.8-0.1,1.8-0.2,3-0.2c1.5,0,2.7,0.1,3.5,0.3c0.8,0.2,1.4,0.7,1.8,1.3c0.4,0.7,0.6,1.7,0.6,3.1v7.7h-4L155.5,145.8z M155.3,143.7
			c0-0.5-0.2-0.8-0.5-0.9c-0.4-0.1-0.9-0.2-1.7-0.2c-0.6,0-1,0.1-1.3,0.3c-0.3,0.2-0.4,0.5-0.4,1c0,0.6,0.2,1,0.5,1.1
			c0.3,0.2,0.8,0.2,1.3,0.2c0.6,0,1.1,0,1.4-0.1c0.3-0.1,0.5-0.2,0.7-0.4C155.3,144.5,155.3,144.1,155.3,143.7z"/>
		<path class="st2" d="M166.1,140.9v6.8h-4v-12.3h4v2.3h0.2c0.3-0.9,0.7-1.6,1.3-1.9c0.6-0.4,1.4-0.5,2.4-0.5c1.4,0,2.4,0.3,3,1
			c0.6,0.6,1,1.6,1,3v8.5h-4v-7.6c0-0.6-0.1-1.1-0.4-1.4c-0.2-0.3-0.7-0.4-1.3-0.4c-0.6,0-1,0.1-1.3,0.3c-0.3,0.2-0.5,0.5-0.6,0.9
			C166.1,139.9,166.1,140.3,166.1,140.9z"/>
		<path class="st2" d="M184,143.6h4c0,1.7-0.6,2.9-1.7,3.5c-0.5,0.3-1.1,0.5-1.8,0.6c-0.7,0.1-1.6,0.2-2.5,0.2
			c-1.6,0-2.8-0.2-3.7-0.6c-0.9-0.4-1.5-1.1-1.8-2c-0.3-0.9-0.5-2.1-0.5-3.7c0-1.7,0.2-2.9,0.5-3.8s0.9-1.5,1.8-1.9
			c0.9-0.4,2.1-0.6,3.8-0.6c1.6,0,2.8,0.2,3.7,0.5c0.9,0.4,1.5,1,1.8,1.9c0.4,0.9,0.5,2.2,0.5,3.9v0.7h-8c0,0.6,0,1,0.1,1.4
			c0.1,0.4,0.2,0.6,0.3,0.8s0.3,0.4,0.6,0.4c0.3,0.1,0.6,0.1,1,0.1c0.7,0,1.2-0.1,1.6-0.3C183.9,144.5,184,144.2,184,143.6z
			 M180,140h4c0-0.9-0.1-1.4-0.4-1.6c-0.3-0.2-0.8-0.3-1.6-0.3c-0.5,0-0.9,0.1-1.2,0.2c-0.3,0.1-0.5,0.3-0.6,0.6
			C180.1,139,180,139.4,180,140z"/>
		<path class="st2" d="M194.1,140.3v7.4h-4v-12.3h3.9v1.8h0.2c0.5-1.3,1.5-2,3.1-2c0.9,0,1.5,0.2,2,0.6c0.4,0.4,0.7,1,0.9,1.6
			c0.1,0.7,0.2,1.4,0.2,2.3v1h-3.6v-0.6c0-0.6-0.1-1-0.2-1.4c-0.1-0.3-0.4-0.5-0.9-0.5C194.6,138.3,194.1,138.9,194.1,140.3z"/>
		<path class="st2" d="M209.7,145.8h-0.1c-0.2,1.3-1.4,2-3.6,2c-1,0-1.8-0.1-2.5-0.3c-0.6-0.2-1.1-0.6-1.5-1.2
			c-0.3-0.6-0.5-1.3-0.5-2.4c0-1.4,0.4-2.4,1.1-3c0.7-0.6,1.9-0.9,3.4-0.9c0.9,0,1.6,0.1,2.2,0.2s1,0.5,1.2,1.2h0.2v-2
			c0-0.7-0.1-1.2-0.3-1.5c-0.2-0.3-0.7-0.4-1.5-0.4c-0.6,0-1,0.1-1.2,0.3c-0.3,0.2-0.4,0.5-0.4,1.1h-4c0-1.2,0.3-2.1,0.8-2.6
			c0.5-0.6,1.1-0.9,1.9-1c0.8-0.1,1.8-0.2,3-0.2c1.5,0,2.7,0.1,3.5,0.3c0.8,0.2,1.4,0.7,1.8,1.3c0.4,0.7,0.6,1.7,0.6,3.1v7.7h-4
			L209.7,145.8z M209.5,143.7c0-0.5-0.2-0.8-0.5-0.9c-0.4-0.1-0.9-0.2-1.7-0.2c-0.6,0-1,0.1-1.3,0.3c-0.3,0.2-0.4,0.5-0.4,1
			c0,0.6,0.2,1,0.5,1.1c0.3,0.2,0.8,0.2,1.3,0.2c0.6,0,1.1,0,1.4-0.1s0.5-0.2,0.7-0.4C209.5,144.5,209.5,144.1,209.5,143.7z"/>
		<path class="st2" d="M216,142.5v-2.7h11.8v2.7H216z"/>
		<path class="st2" d="M235.9,135.2c1.3,0,2.4,0.1,3.2,0.3c0.8,0.2,1.4,0.5,1.8,0.9s0.7,1.1,0.9,1.9c0.2,0.8,0.2,1.9,0.2,3.3
			c0,1.3-0.1,2.4-0.3,3.2c-0.2,0.8-0.5,1.4-0.9,1.9c-0.4,0.5-1,0.8-1.8,1c-0.8,0.2-1.8,0.3-3.2,0.3c-1.3,0-2.3-0.1-3.1-0.3
			c-0.8-0.2-1.4-0.5-1.8-1c-0.4-0.5-0.8-1.1-0.9-1.9c-0.2-0.8-0.3-1.8-0.3-3.1c0-1.3,0.1-2.4,0.3-3.2c0.2-0.8,0.5-1.4,0.9-1.9
			c0.4-0.5,1-0.8,1.8-1C233.6,135.3,234.6,135.2,235.9,135.2z M236,138.3c-0.7,0-1.2,0.1-1.5,0.2c-0.3,0.2-0.5,0.5-0.6,0.9
			c-0.1,0.4-0.1,1.1-0.1,2.1c0,0.9,0,1.6,0.1,2.1c0.1,0.4,0.3,0.7,0.6,0.9c0.3,0.2,0.8,0.2,1.4,0.2c0.5,0,0.9,0,1.1-0.1
			c0.3-0.1,0.5-0.2,0.6-0.5c0.1-0.2,0.2-0.5,0.3-0.9c0-0.4,0.1-1,0.1-1.7c0-0.9,0-1.6-0.1-2.1c-0.1-0.4-0.3-0.7-0.6-0.9
			C237.1,138.4,236.7,138.3,236,138.3z"/>
		<path class="st2" d="M243.7,143.8h4c0,0.6,0.1,0.9,0.5,1.1c0.3,0.2,0.8,0.3,1.5,0.3c0.6,0,1,0,1.3-0.1s0.5-0.1,0.6-0.3
			s0.2-0.4,0.2-0.7c0-0.3-0.1-0.6-0.2-0.7c-0.1-0.2-0.3-0.3-0.6-0.3c-0.3-0.1-0.7-0.1-1.3-0.1c-1.5,0-2.7-0.1-3.6-0.4
			c-0.9-0.3-1.5-0.7-1.9-1.2c-0.4-0.6-0.6-1.3-0.6-2.1c0-0.9,0.1-1.6,0.4-2.1c0.3-0.5,0.7-0.9,1.2-1.2c0.5-0.3,1.1-0.4,1.8-0.5
			c0.7-0.1,1.6-0.1,2.6-0.1c1.1,0,2,0.1,2.8,0.2c0.8,0.1,1.4,0.4,1.9,0.9c0.5,0.4,0.7,1.1,0.7,2v0.6h-3.8c0-0.4-0.2-0.7-0.4-0.8
			s-0.6-0.2-1.2-0.2c-0.9,0-1.5,0.1-1.8,0.2c-0.2,0.1-0.4,0.4-0.4,0.8c0,0.2,0,0.4,0.1,0.6c0.1,0.1,0.3,0.3,0.6,0.4s0.8,0.1,1.4,0.1
			c1.5,0,2.6,0.1,3.5,0.3c0.9,0.2,1.5,0.6,1.9,1.1c0.4,0.5,0.6,1.3,0.6,2.3c0,1.2-0.2,2.1-0.6,2.7c-0.4,0.6-1,1-1.8,1.2
			c-0.8,0.2-2,0.3-3.4,0.3c-1.1,0-2.1,0-2.8-0.1c-0.7-0.1-1.4-0.3-1.9-0.5s-0.9-0.7-1.1-1.2C243.8,145.4,243.7,144.7,243.7,143.8z"
			/>
		<path class="st2" d="M261.8,145.5l0.1,2.1h-4V130h4v7.1h0.2c0.3-0.7,0.7-1.2,1.3-1.5c0.6-0.3,1.3-0.4,2.1-0.4
			c0.9,0,1.6,0.1,2.2,0.3c0.6,0.2,1.1,0.5,1.4,0.9c0.4,0.4,0.6,1,0.8,1.6c0.2,0.7,0.3,1.5,0.3,2.4v2.8c0,1.6-0.4,2.7-1.2,3.5
			c-0.8,0.7-2,1.1-3.5,1.1c-1,0-1.7-0.2-2.3-0.5c-0.6-0.3-1-0.9-1.2-1.8H261.8z M261.9,141.5c0,0.9,0,1.6,0.1,2
			c0.1,0.4,0.3,0.7,0.6,0.9c0.3,0.2,0.8,0.3,1.5,0.3c0.6,0,1-0.1,1.3-0.3c0.3-0.2,0.5-0.5,0.6-0.9c0.1-0.4,0.1-1.1,0.1-2
			c0-0.8,0-1.4-0.1-1.8c-0.1-0.4-0.3-0.8-0.6-1c-0.3-0.2-0.7-0.4-1.3-0.4c-0.6,0-1,0.1-1.4,0.2c-0.3,0.2-0.5,0.5-0.7,0.9
			C261.9,139.9,261.9,140.6,261.9,141.5z"/>
		<path class="st2" d="M276.9,143.6v4.1h-3.8v-4.1H276.9z"/>
		<path class="st2" d="M284.7,140.3v7.4h-4v-12.3h3.9v1.8h0.2c0.5-1.3,1.5-2,3.1-2c0.9,0,1.5,0.2,2,0.6c0.4,0.4,0.7,1,0.9,1.6
			c0.1,0.7,0.2,1.4,0.2,2.3v1h-3.6v-0.6c0-0.6-0.1-1-0.2-1.4c-0.1-0.3-0.4-0.5-0.9-0.5C285.2,138.3,284.7,138.9,284.7,140.3z"/>
		<path class="st2" d="M300.2,142.9v-7.6h4v12.3h-3.9l0.1-2.4h-0.2c-0.5,1.7-1.7,2.5-3.7,2.5c-2.8,0-4.2-1.3-4.2-4v-8.4h4v7.4
			c0,0.7,0.1,1.2,0.3,1.5c0.2,0.3,0.6,0.5,1.2,0.5c0.6,0,1.1-0.2,1.5-0.5C300,143.9,300.2,143.5,300.2,142.9z"/>
	</g>
	<g>
		<path class="st1" d="M38.3,114.7H27.4c-0.2,0-0.5-0.1-0.6-0.3c-0.2-0.2-0.2-0.4-0.2-0.7l0.5-3h-4.6c-3,0-5.6-0.3-7.5-1
			c-2-0.7-3.5-1.9-4.5-3.5c-1-1.6-1.4-3.7-1.4-6.4c0-1.9,0.2-4.1,0.7-6.6c0.8-4.2,1.9-7.6,3.3-10.1c1.5-2.5,3.5-4.4,6-5.5
			c2.4-1.1,5.6-1.6,9.4-1.6h4.9l0.6-3.1c0.1-0.4,0.4-0.7,0.8-0.7h10.9c0.2,0,0.5,0.1,0.6,0.3c0.2,0.2,0.2,0.4,0.2,0.7L46,76.1h4.5
			c4.7,0,8,0.8,10.2,2.5c2.2,1.7,3.3,4.6,3.3,8.6c0,1.8-0.2,4-0.7,6.4c-0.6,3.2-1.4,6-2.3,8.1c-1,2.2-2.2,4-3.7,5.3
			c-1.5,1.3-3.3,2.3-5.4,2.9c-2,0.6-4.5,0.9-7.4,0.9h-4.8l-0.6,3.3C39.1,114.5,38.7,114.7,38.3,114.7z M28.4,113.1h9.2l0.6-3.3
			c0.1-0.4,0.4-0.7,0.8-0.7h5.5c2.7,0,5-0.3,6.9-0.8c1.8-0.5,3.4-1.4,4.7-2.5c1.3-1.2,2.4-2.8,3.3-4.7c0.9-2,1.6-4.6,2.2-7.8
			c0.4-2.3,0.6-4.4,0.6-6.1c0-3.4-0.9-5.9-2.7-7.3c-1.8-1.4-4.9-2.2-9.2-2.2H45c-0.2,0-0.5-0.1-0.6-0.3c-0.2-0.2-0.2-0.4-0.2-0.7
			l0.5-2.8h-9.2L34.9,77c-0.1,0.4-0.4,0.7-0.8,0.7h-5.6c-3.5,0-6.5,0.5-8.7,1.5c-2.2,1-3.9,2.6-5.3,4.8c-1.4,2.3-2.4,5.5-3.1,9.6
			c-0.4,2.4-0.6,4.5-0.6,6.3c0,2.3,0.4,4.2,1.2,5.5c0.8,1.3,2,2.2,3.6,2.8c1.7,0.6,4.1,0.9,6.9,0.9h5.6c0.2,0,0.5,0.1,0.6,0.3
			c0.2,0.2,0.2,0.4,0.2,0.7L28.4,113.1z M26.1,101.3c-1.8,0-3.2-0.3-4-1c-0.9-0.7-1.4-2-1.4-3.7c0-0.9,0.1-2,0.3-3.3
			c0.3-1.9,0.8-3.4,1.3-4.5c0.6-1.2,1.4-2,2.5-2.6c1-0.5,2.3-0.8,3.8-0.8h3.8c0.2,0,0.5,0.1,0.6,0.3c0.2,0.2,0.2,0.4,0.2,0.7
			l-2.6,14.1c-0.1,0.4-0.4,0.7-0.8,0.7L26.1,101.3C26.1,101.3,26.1,101.3,26.1,101.3z M28.6,87.2c-1.3,0-2.3,0.2-3,0.6
			c-0.7,0.4-1.3,1-1.8,1.8c-0.5,0.9-0.9,2.3-1.2,4c-0.2,1.2-0.3,2.2-0.3,3c0,1.2,0.3,2,0.7,2.4c0.4,0.3,1.2,0.7,3,0.7l3.1,0
			l2.3-12.4H28.6z M44.4,101.3h-3.7c-0.2,0-0.5-0.1-0.6-0.3c-0.2-0.2-0.2-0.4-0.2-0.7l2.6-14.1c0.1-0.4,0.4-0.7,0.8-0.7l3.7-0.1
			c1.9,0,3.2,0.4,4.1,1.1c0.9,0.8,1.4,2.1,1.4,3.8c0,0.9-0.1,2-0.3,3.2c-0.4,1.9-0.8,3.5-1.4,4.6c-0.6,1.2-1.5,2-2.5,2.5
			C47.2,101.1,45.9,101.3,44.4,101.3z M41.7,99.6h2.7c1.3,0,2.3-0.2,3-0.5c0.7-0.3,1.3-0.9,1.7-1.8c0.5-0.9,0.9-2.3,1.3-4.1
			c0.2-1.1,0.3-2,0.3-2.8c0-1.2-0.3-2.1-0.8-2.5c-0.6-0.5-1.6-0.7-3-0.7l-3,0L41.7,99.6z"/>
		<path class="st1" d="M101.2,114.7H90.1c-0.4,0-0.8-0.3-0.8-0.7l-0.8-6.3H75.1l-3,6.5c-0.1,0.3-0.4,0.5-0.8,0.5H60
			c-0.3,0-0.6-0.1-0.7-0.4c-0.2-0.2-0.2-0.5,0-0.8l19.6-40.8c0.1-0.3,0.4-0.5,0.8-0.5h16.6c0.4,0,0.8,0.3,0.8,0.7l5.1,40.8
			c0,0.2,0,0.5-0.2,0.7C101.7,114.6,101.4,114.7,101.2,114.7z M90.8,113.1h9.4l-4.9-39.2H80.1l-18.8,39.2h9.5l3-6.5
			c0.1-0.3,0.4-0.5,0.8-0.5h14.6c0.4,0,0.8,0.3,0.8,0.7L90.8,113.1z M88.5,99.8H78.3c-0.3,0-0.5-0.1-0.7-0.4
			c-0.2-0.2-0.2-0.5-0.1-0.8l8.2-17.7c0.3-0.7,1.6-0.5,1.7,0.3l1.8,17.7c0,0.2-0.1,0.5-0.2,0.6C88.9,99.7,88.7,99.8,88.5,99.8z
			 M79.6,98.1h7.9l-1.5-13.9L79.6,98.1z"/>
		<path class="st1" d="M140,114.7h-10.9c-0.2,0-0.5-0.1-0.6-0.3c-0.2-0.2-0.2-0.4-0.2-0.7l2.7-15h-12.5l-2.8,15.3
			c-0.1,0.4-0.4,0.7-0.8,0.7H104c-0.2,0-0.5-0.1-0.6-0.3c-0.2-0.2-0.2-0.4-0.2-0.7l7.3-40.8c0.1-0.4,0.4-0.7,0.8-0.7h10.9
			c0.2,0,0.5,0.1,0.6,0.3c0.2,0.2,0.2,0.4,0.2,0.7l-2.6,14.4H133l2.7-14.7c0.1-0.4,0.4-0.7,0.8-0.7h10.9c0.2,0,0.5,0.1,0.6,0.3
			c0.2,0.2,0.2,0.4,0.2,0.7l-7.3,40.8C140.8,114.5,140.4,114.7,140,114.7z M130.1,113.1h9.2l7-39.2h-9.2l-2.7,14.7
			c-0.1,0.4-0.4,0.7-0.8,0.7h-14.2c-0.2,0-0.5-0.1-0.6-0.3c-0.2-0.2-0.2-0.4-0.2-0.7l2.6-14.4h-9.2l-7,39.2h9.2l2.8-15.3
			c0.1-0.4,0.4-0.7,0.8-0.7H132c0.2,0,0.5,0.1,0.6,0.3c0.2,0.2,0.2,0.4,0.2,0.7L130.1,113.1z"/>
		<path class="st1" d="M176.7,114.7h-29.8c-0.2,0-0.5-0.1-0.6-0.3c-0.2-0.2-0.2-0.4-0.2-0.7l7.3-40.8c0.1-0.4,0.4-0.7,0.8-0.7h29.4
			c0.2,0,0.5,0.1,0.6,0.3c0.2,0.2,0.2,0.4,0.2,0.7l-1.6,8.9c-0.1,0.4-0.4,0.7-0.8,0.7h-17.9l-1,5.8h16.4c0.2,0,0.5,0.1,0.6,0.3
			c0.2,0.2,0.2,0.4,0.2,0.7l-1.4,7.6c-0.1,0.4-0.4,0.7-0.8,0.7h-16.7l-1.1,6.3h18c0.2,0,0.5,0.1,0.6,0.3c0.2,0.2,0.2,0.4,0.2,0.7
			l-1.6,8.9C177.5,114.5,177.2,114.7,176.7,114.7z M147.9,113.1h28.1l1.3-7.3h-17.9c-0.2,0-0.5-0.1-0.6-0.3
			c-0.2-0.2-0.2-0.4-0.2-0.7l1.4-7.9c0.1-0.4,0.4-0.7,0.8-0.7h16.7l1.1-5.9h-16.4c-0.2,0-0.5-0.1-0.6-0.3c-0.2-0.2-0.2-0.4-0.2-0.7
			l1.3-7.5c0.1-0.4,0.4-0.7,0.8-0.7h17.9l1.3-7.3H155L147.9,113.1z"/>
		<path class="st1" d="M194.4,114.7h-10.9c-0.2,0-0.5-0.1-0.6-0.3c-0.2-0.2-0.2-0.4-0.2-0.7l7.3-40.8c0.1-0.4,0.4-0.7,0.8-0.7h20.5
			c2.8,0,5.2,0.4,7,1c1.9,0.7,3.3,1.9,4.2,3.5c0.9,1.5,1.3,3.5,1.3,5.9c0,1.7-0.2,3.6-0.6,5.5c-0.7,4-1.7,7.2-2.8,9.5
			c-1.2,2.3-3,4.1-5.4,5.1c-2.3,1-5.4,1.5-9.3,1.5H197l-1.8,9.8C195.1,114.5,194.8,114.7,194.4,114.7z M184.5,113.1h9.2l1.8-9.8
			c0.1-0.4,0.4-0.7,0.8-0.7h9.6c3.6,0,6.5-0.5,8.6-1.4c2-0.9,3.5-2.3,4.6-4.3c1.1-2.1,2-5.1,2.7-9c0.4-1.8,0.5-3.6,0.5-5.2
			c0-2.1-0.4-3.8-1.1-5.1c-0.7-1.2-1.8-2.1-3.4-2.7c-1.6-0.6-3.8-0.9-6.4-0.9h-19.8L184.5,113.1z M205.4,94.8H198
			c-0.2,0-0.5-0.1-0.6-0.3c-0.2-0.2-0.2-0.4-0.2-0.7l2.1-11.4c0.1-0.4,0.4-0.7,0.8-0.7h7.5c1.8,0,3,0.2,3.7,0.8
			c0.8,0.6,1.3,1.5,1.3,2.9c0,0.7-0.1,1.7-0.3,2.8c-0.3,1.9-0.7,3.2-1.1,4.1c-0.5,1-1.2,1.7-2.1,2C208.2,94.7,207,94.8,205.4,94.8z
			 M199,93.2h6.5c1.7,0,2.6-0.2,3-0.3c0.5-0.2,0.9-0.6,1.2-1.2c0.3-0.7,0.7-2,1-3.7c0.2-1,0.3-1.9,0.3-2.5c0-0.8-0.2-1.3-0.5-1.5
			c-0.3-0.2-1-0.5-2.8-0.5h-6.8L199,93.2z"/>
		<path class="st1" d="M259.6,114.7h-11.1c-0.4,0-0.8-0.3-0.8-0.7l-0.8-6.3h-13.4l-3,6.5c-0.1,0.3-0.4,0.5-0.8,0.5h-11.3
			c-0.3,0-0.6-0.1-0.7-0.4s-0.2-0.5,0-0.8l19.6-40.8c0.1-0.3,0.4-0.5,0.8-0.5h16.6c0.4,0,0.8,0.3,0.8,0.7l5.1,40.8
			c0,0.2,0,0.5-0.2,0.7C260.1,114.6,259.8,114.7,259.6,114.7z M249.2,113.1h9.4l-4.9-39.2h-15.3l-18.8,39.2h9.5l3-6.5
			c0.1-0.3,0.4-0.5,0.8-0.5h14.6c0.4,0,0.8,0.3,0.8,0.7L249.2,113.1z M246.8,99.8h-10.1c-0.3,0-0.5-0.1-0.7-0.4
			c-0.2-0.2-0.2-0.5-0.1-0.8l8.2-17.7c0.3-0.7,1.6-0.5,1.7,0.3l1.8,17.7c0,0.2-0.1,0.5-0.2,0.6C247.3,99.7,247.1,99.8,246.8,99.8z
			 M238,98.1h7.9l-1.5-13.9L238,98.1z"/>
	</g>
	<path class="st0" d="M116.6,122.5c-1-1.2-2.3-2-4.1-2.4c-1.6-0.4-3.7-0.6-6.3-0.6H85.4c-0.4,0-0.7,0.3-0.8,0.7l-7.1,39.7
		c0,0.2,0,0.5,0.2,0.7c0.2,0.2,0.4,0.3,0.6,0.3h21.1c2.3,0,4.3-0.1,6-0.4c1.7-0.3,3.2-0.8,4.5-1.6c1.3-0.8,2.4-2.1,3.3-3.6
		c0.9-1.5,1.5-3.6,2-6.1c0.3-1.5,0.4-2.7,0.4-3.6c0-1.9-0.5-3.4-1.5-4.5c-0.5-0.6-1.2-1-2.1-1.3c0.7-0.3,1.3-0.6,1.9-1
		c1.2-0.9,2.1-2,2.7-3.3c0.6-1.3,1-2.9,1.4-4.8c0.2-1.3,0.3-2.4,0.3-3.3C118,125.3,117.6,123.6,116.6,122.5z M103.1,147.2
		c-0.2,0.9-0.4,1.7-0.8,2.1c-0.3,0.4-0.7,0.7-1.3,0.9c-0.7,0.2-1.5,0.3-2.6,0.3h-7l1.1-6.1h7.5c1.8,0,2.6,0.2,2.9,0.4
		c0.1,0.1,0.4,0.2,0.4,1.1C103.3,146.3,103.2,146.7,103.1,147.2z M105.2,132.3c-0.2,1-0.4,1.7-0.7,2.1c-0.2,0.4-0.6,0.6-1.1,0.8
		c-0.6,0.2-1.5,0.3-2.7,0.3h-6.6l1-5.5h8.2c1.2,0,1.6,0.2,1.7,0.3c0.1,0.1,0.3,0.2,0.3,0.9C105.3,131.5,105.2,132,105.2,132.3z"/>
	<path class="st0" d="M36.7,121.5c-2.8-1.5-7-2.3-12.4-2.3c-3,0-5.6,0.2-7.9,0.6c-2.3,0.4-4.5,1.2-6.3,2.3c-1.9,1.1-3.5,2.7-4.8,4.7
		c-1.3,2-2.2,4.6-2.7,7.6l-2.1,11.2c-0.3,1.4-0.4,2.8-0.4,4.2c0,4.4,1.5,7.4,4.5,9.1c2.8,1.5,7,2.3,12.4,2.3c3,0,5.7-0.2,7.9-0.6
		c2.3-0.4,4.5-1.2,6.3-2.3c1.9-1.1,3.5-2.7,4.8-4.7c1.3-2,2.2-4.6,2.7-7.6l2.1-11.2c0.3-1.4,0.4-2.8,0.4-4.2
		C41.2,126.2,39.7,123.1,36.7,121.5z M28.1,135.5l-1.6,8.9c-0.3,1.8-0.8,3.1-1.3,4c-0.5,0.8-1.2,1.2-2.1,1.5c-1,0.3-2.5,0.4-4.4,0.4
		c-1.6,0-2.8-0.1-3.7-0.2c-0.7-0.1-1.2-0.4-1.5-0.8c-0.3-0.4-0.5-1.1-0.5-2.1c0-0.8,0.1-1.6,0.2-2.4l1.6-8.9c0.4-1.8,0.8-3.2,1.4-4
		c0.5-0.7,1.2-1.2,2-1.4c1-0.3,2.4-0.4,4.4-0.4c1.6,0,2.9,0.1,3.7,0.2c0.7,0.1,1.2,0.4,1.5,0.8c0.3,0.4,0.5,1.1,0.5,2
		C28.3,133.9,28.2,134.7,28.1,135.5z"/>
	<path class="st0" d="M77.6,123.5c-0.7-1.2-1.8-2.1-3.1-2.7c-1.3-0.6-2.9-1-4.7-1.2c-1.7-0.2-3.9-0.3-6.4-0.3
		c-3.9,0-7.2,0.3-9.7,0.9c-2.6,0.6-4.8,1.9-6.5,3.7c-1.7,1.9-2.9,4.6-3.6,8.2c-0.3,1.6-0.4,3-0.4,4.1c0,1.9,0.4,3.4,1.1,4.6
		c0.7,1.2,1.7,2,3,2.6c1.2,0.5,2.6,0.9,4.1,1.1c1.4,0.2,3.5,0.4,6.4,0.6l2.3,0.2c1.6,0.1,2.6,0.2,3.3,0.3c0.6,0.1,0.9,0.2,1,0.3
		c0.1,0.1,0.1,0.2,0.1,0.6c0,0.2-0.1,0.7-0.2,1.6c-0.2,0.9-0.4,1.6-0.8,2c-0.4,0.4-0.9,0.6-1.7,0.8c-0.9,0.1-2.2,0.2-4,0.2
		c-1.5,0-2.7-0.1-3.5-0.2c-0.6-0.1-1.1-0.3-1.4-0.6c-0.2-0.2-0.4-0.6-0.4-1.2c0-0.1,0-0.4,0.2-1.6c0-0.2,0-0.5-0.2-0.7
		c-0.2-0.2-0.4-0.3-0.6-0.3H41.7c-0.4,0-0.7,0.3-0.8,0.7c-0.3,1.8-0.5,3.3-0.5,4.7c0,2.7,0.6,4.7,1.9,6.1c1.2,1.4,3,2.3,5.3,2.8
		c2.1,0.4,5,0.6,8.6,0.6c3.9,0,7.1-0.2,9.4-0.5c2.4-0.4,4.3-1,5.7-2c1.5-1,2.6-2.4,3.4-4.2c0.7-1.7,1.4-4,1.9-7
		c0.3-1.6,0.4-3,0.4-4.1c0-2-0.5-3.6-1.4-4.7c-0.9-1.1-2.4-2-4.4-2.5c-1.9-0.5-4.5-0.9-7.9-1.1l-4.3-0.3c-0.9-0.1-1.6-0.1-2.1-0.2
		c-0.3-0.1-0.6-0.2-0.7-0.4c-0.1-0.2-0.2-0.5-0.2-0.9c0-0.4,0-0.7,0.1-1c0.1-0.7,0.3-1.3,0.6-1.6c0.2-0.2,0.5-0.5,1.5-0.8
		c0.9-0.2,2.2-0.3,3.9-0.3c1.4,0,2.5,0,3.1,0.1c0.5,0.1,0.9,0.2,1.1,0.4c0.2,0.2,0.3,0.6,0.3,1.1c0,0.4,0,0.9-0.1,1.5
		c0,0.2,0,0.5,0.2,0.7c0.2,0.2,0.4,0.3,0.6,0.3h10.2c0.4,0,0.8-0.3,0.8-0.7l0.3-1.6c0.2-1.2,0.3-2.3,0.3-3.3
		C78.6,126.1,78.3,124.6,77.6,123.5z"/>
</g>
</svg>
